<svg width="136" height="121" viewBox="0 0 98 106" fill="none" xmlns="http://www.w3.org/2000/svg">
    <circle cx="12" cy="12.5" r="11" stroke="white" stroke-width="2" stroke-dasharray="3 3"/>
    <circle cx="86" cy="12.5" r="11" stroke="white" stroke-width="2" stroke-dasharray="3 3"/>
    <circle cx="12" cy="93.5" r="11" stroke="white" stroke-width="2" stroke-dasharray="3 3"/>
    <circle cx="86" cy="93.5" r="11" stroke="white" stroke-width="2" stroke-dasharray="3 3"/>
    <mask id="path-5-inside-1_1156_108623" fill="white">
        <path fill-rule="evenodd" clip-rule="evenodd" d="M57 69.5038C62.3558 66.6421 66 60.9966 66 54.5C66 45.1112 58.3888 37.5 49 37.5C39.6112 37.5 32 45.1112 32 54.5C32 61.3934 36.103 67.3285 42 69.9965V77.5H57V69.5038Z"/>
    </mask>
    <path d="M57 69.5038L56.0575 67.7398L55 68.3048V69.5038H57ZM42 69.9965H44V68.7062L42.8244 68.1743L42 69.9965ZM42 77.5H40V79.5H42V77.5ZM57 77.5V79.5H59V77.5H57ZM64 54.5C64 60.2296 60.7883 65.2121 56.0575 67.7398L57.9425 71.2678C63.9233 68.0722 68 61.7637 68 54.5H64ZM49 39.5C57.2843 39.5 64 46.2157 64 54.5H68C68 44.0066 59.4934 35.5 49 35.5V39.5ZM34 54.5C34 46.2157 40.7157 39.5 49 39.5V35.5C38.5066 35.5 30 44.0066 30 54.5H34ZM42.8244 68.1743C37.6167 65.8183 34 60.5794 34 54.5H30C30 62.2075 34.5892 68.8388 41.1756 71.8187L42.8244 68.1743ZM44 77.5V69.9965H40V77.5H44ZM57 75.5H42V79.5H57V75.5ZM55 69.5038V77.5H59V69.5038H55Z" fill="white" mask="url(#path-5-inside-1_1156_108623)"/>
    <path d="M59 54.5C59 52.8605 58.5969 51.2462 57.8262 49.7992C57.0555 48.3521 55.9409 47.1168 54.5804 46.2019C53.22 45.287 51.6555 44.7206 50.0246 44.5526C48.3938 44.3846 46.7466 44.6202 45.2283 45.2386L45.977 47.0772C47.194 46.5816 48.5141 46.3928 49.8212 46.5274C51.1283 46.662 52.3822 47.116 53.4726 47.8492C54.563 48.5825 55.4563 49.5726 56.074 50.7324C56.6917 51.8922 57.0148 53.186 57.0148 54.5H59Z" fill="black"/>
    <line x1="40" y1="81.5" x2="59" y2="81.5" stroke="white" stroke-width="2"/>
    <line x1="40" y1="86.5" x2="59" y2="86.5" stroke="white" stroke-width="2"/>
    <line x1="43" y1="91.5" x2="56" y2="91.5" stroke="white" stroke-width="2"/>
    <line x1="50" y1="20.5" x2="50" y2="32.5" stroke="white" stroke-width="2"/>
    <line x1="75.5745" y1="32.2599" x2="65.7522" y2="39.1537" stroke="white" stroke-width="2"/>
    <line y1="-1" x2="12" y2="-1" transform="matrix(0.81852 0.574478 0.574478 -0.81852 23 31.4414)" stroke="white" stroke-width="2"/>
    <line x1="14" y1="54.5" x2="28" y2="54.5" stroke="white" stroke-width="2"/>
    <line x1="70" y1="54.5" x2="84" y2="54.5" stroke="white" stroke-width="2"/>
</svg>
