<svg width="40" height="34" viewBox="0 0 40 34" fill="none" xmlns="http://www.w3.org/2000/svg">
<path d="M12.5836 33.2755C27.6742 33.2755 35.9305 20.77 35.9305 9.92861C35.9305 9.57705 35.9227 9.21768 35.907 8.86611C37.5131 7.70461 38.8992 6.26594 40 4.61768C38.5042 5.28318 36.9161 5.71782 35.2898 5.90674C37.0021 4.88036 38.2842 3.26797 38.8984 1.36846C37.2876 2.32311 35.526 2.99653 33.6891 3.35986C32.4514 2.04478 30.815 1.17404 29.0328 0.882264C27.2506 0.590489 25.422 0.89393 23.8296 1.74567C22.2372 2.59742 20.9697 3.95002 20.2231 5.59437C19.4765 7.23871 19.2924 9.0832 19.6992 10.8427C16.4375 10.679 13.2466 9.83169 10.3333 8.35568C7.42004 6.87967 4.84949 4.80791 2.78828 2.27471C1.74067 4.08092 1.42009 6.21825 1.89172 8.25233C2.36334 10.2864 3.59177 12.0646 5.32734 13.2255C4.02438 13.1841 2.74996 12.8333 1.60938 12.2021V12.3036C1.60821 14.1991 2.2635 16.0365 3.46385 17.5035C4.6642 18.9704 6.33554 19.9764 8.19375 20.3505C6.98676 20.6807 5.71997 20.7288 4.49141 20.4911C5.01576 22.1212 6.03595 23.547 7.40962 24.5694C8.78328 25.5918 10.4419 26.1598 12.1539 26.1942C9.24737 28.4774 5.65696 29.7157 1.96094 29.7099C1.30548 29.7089 0.650665 29.6687 0 29.5896C3.75476 31.9984 8.12255 33.2778 12.5836 33.2755Z" fill="white"/>
</svg>
