<svg width="283.6" height="117.1" xmlns="http://www.w3.org/2000/svg" xml:space="preserve" version="1.1">

 <g>
  <title>Layer 1</title>
  <path id="svg_1" fill="#000000" clip-rule="evenodd" fill-rule="evenodd" d="m80,66.5l0,0l0,-43.2c0,0 0,0 12.7,0c0,0 0,0 0,59.2c0,0 0,0 -10.5,0c0,0 0,0 -1.6,-6.6c-3.7,6 -10.9,7.4 -14.9,7.4c-15,0 -26.7,-10.4 -26.7,-26.7c0,0 0,0 0,-33.4c0,0 0,0 12.7,0c0,0 0,0 0,33.4c0,15.1 18.6,21 28.3,9.9l0,0zm106.4,-44.3c17.8,0 30.7,13.5 30.7,30.8c0,17.2 -13,30.9 -30.7,30.9c-17.7,0 -30.9,-13.7 -30.9,-30.9c0,-17.3 13.2,-30.8 30.9,-30.8l0,0zm0,50.2c9,0 18,-6.3 18,-19.4c0,-13.1 -9,-19.2 -18,-19.2c-8.7,0 -18.2,6.1 -18.2,19.2c0,13.1 9.4,19.4 18.2,19.4l0,0zm85.6,-8.5c0,-29.8 0,-29.8 0,-29.8c11,0 11,0 11,0c0,-10.7 0,-10.7 0,-10.7c-11,0 -11,0 -11,0c0,-16.4 0,-16.4 0,-16.4c-12.2,1.4 -12.2,1.4 -12.2,1.4c0,15.1 0,15.1 0,15.1c-20.7,0 -20.7,0 -20.7,0c0,-4.4 0,-4.4 0,-4.4c0,-4.2 2.5,-7.6 7.8,-7.9c1.4,-0.1 2.8,0.1 4.5,0.5c0,-10.7 0,-10.7 0,-10.7c-2,-0.4 -3.9,-0.5 -5.6,-0.5c-12,-0.1 -19.4,6.8 -19.4,18.6c0,4.4 0,4.4 0,4.4c-8.4,0 -8.4,0 -8.4,0c-0.1,0 -0.1,0 -0.1,0c0,10.7 0,10.7 0,10.7c8.4,0 8.4,0 8.4,0c0,48.5 0,48.5 0,48.5c12.6,0 12.6,0 12.6,0c0,-48.5 0,-48.5 0,-48.5c20.7,0 20.7,0 20.7,0c0,30.2 0,30.2 0,30.2c0,14.2 9.8,19.8 23.5,18.5c0,-11.1 0,-11.1 0,-11.1c-8.2,1.3 -11.1,-3.2 -11.1,-7.9l0,0zm-158.5,-40.6l0,0l-14.8,0l19.7,29.6l-20,29.7l13.6,0l20,-29.7l-18.5,-29.6l0,0l0,0l0,0zm42.4,0l-13.8,0l-7.7,11.7l6.6,10.5l14.9,-22.2l0,0l0,0zm-14.9,36.8l-6.9,10.1l8.2,12.4l13.8,0l-15.1,-22.5l0,0l0,0l0,0zm-122.3,10.9c-3,0 -5.4,-2.4 -5.4,-5.5c0,-57.2 0,-57.2 0,-57.2c-12.9,-1.4 -12.9,-1.4 -12.9,-1.4c0,60 0,60 0,60c0,8.7 7,15.7 15.7,15.7c18.8,0 18.8,0 18.8,0c0,-11.7 0,-11.7 0,-11.7l-16.2,0l0,0.1l0,0z" class="st0"/>
  <path fill="#000000" id="svg_2" d="m11.7,111.9l-1.5,-4.2l-5.7,0l-1.5,4.2l-2.6,0l5.6,-15l2.7,0l5.6,15l-2.6,0zm-2.1,-6.3l-1.4,-4.1c-0.1,-0.3 -0.2,-0.7 -0.4,-1.3c-0.2,-0.6 -0.3,-1 -0.4,-1.3c-0.2,0.8 -0.5,1.8 -0.8,2.8l-1.4,3.9l4.4,0zm24.3,-1.3c0,2.5 -0.7,4.4 -2.1,5.7c-1.4,1.3 -3.3,2 -5.9,2l-4.2,0l0,-15l4.6,0c2.4,0 4.2,0.6 5.6,1.9c1.3,1.2 2,3 2,5.4zm-2.6,0c0,-3.6 -1.7,-5.4 -5,-5.4l-2.1,0l0,10.9l1.7,0c3.6,0 5.4,-1.8 5.4,-5.5zm16.8,7.6l-2.8,0l-3.7,-6.1l-3.8,6.1l-2.6,0l5,-7.8l-4.6,-7.2l2.7,0l3.5,5.7l3.5,-5.7l2.6,0l-4.7,7.2l4.9,7.8zm8.4,-13.1c-1.4,0 -2.5,0.5 -3.3,1.5c-0.8,1 -1.2,2.4 -1.2,4.1c0,1.8 0.4,3.2 1.2,4.2c0.8,0.9 1.9,1.4 3.4,1.4c0.6,0 1.2,-0.1 1.8,-0.2c0.6,-0.1 1.2,-0.3 1.9,-0.5l0,2.1c-1.2,0.4 -2.5,0.7 -4,0.7c-2.2,0 -3.9,-0.7 -5,-2c-1.2,-1.3 -1.8,-3.2 -1.8,-5.7c0,-1.6 0.3,-2.9 0.9,-4.1c0.6,-1.2 1.4,-2.1 2.5,-2.7c1.1,-0.6 2.3,-0.9 3.8,-0.9c1.5,0 2.9,0.3 4.2,1l-0.9,2c-0.5,-0.2 -1,-0.4 -1.6,-0.6c-0.7,-0.2 -1.3,-0.3 -1.9,-0.3zm17.5,13.1l-2.4,0l0,-12.9l-4.4,0l0,-2.1l11.2,0l0,2.1l-4.4,0l0,12.9zm11.4,0.2c-1.8,0 -3.1,-0.5 -4.1,-1.5c-1,-1 -1.5,-2.4 -1.5,-4.2c0,-1.8 0.5,-3.3 1.4,-4.4c0.9,-1.1 2.2,-1.6 3.8,-1.6c1.5,0 2.7,0.5 3.5,1.4c0.9,0.9 1.3,2.2 1.3,3.7l0,1.3l-7.5,0c0,1.1 0.3,1.9 0.9,2.5c0.6,0.6 1.3,0.9 2.4,0.9c0.7,0 1.3,-0.1 1.9,-0.2c0.6,-0.1 1.2,-0.3 1.9,-0.6l0,2c-0.6,0.3 -1.2,0.5 -1.8,0.6c-0.8,0 -1.5,0.1 -2.2,0.1zm-0.5,-9.9c-0.8,0 -1.4,0.2 -1.8,0.7c-0.5,0.5 -0.7,1.2 -0.8,2.1l5.1,0c0,-0.9 -0.2,-1.6 -0.7,-2.1c-0.4,-0.5 -1,-0.7 -1.8,-0.7zm12.2,9.9c-1.7,0 -3,-0.5 -3.9,-1.5c-0.9,-1 -1.3,-2.4 -1.3,-4.3c0,-1.9 0.5,-3.4 1.4,-4.4c0.9,-1 2.3,-1.5 4,-1.5c1.2,0 2.3,0.2 3.2,0.7l-0.7,1.9c-1,-0.4 -1.9,-0.6 -2.5,-0.6c-2,0 -2.9,1.3 -2.9,3.9c0,1.3 0.2,2.2 0.7,2.9c0.5,0.6 1.2,1 2.1,1c1.1,0 2.1,-0.3 3,-0.8l0,2.1c-0.4,0.3 -0.9,0.4 -1.4,0.5c-0.4,0 -1,0.1 -1.7,0.1zm15.7,-0.2l-2.4,0l0,-7c0,-0.9 -0.2,-1.5 -0.5,-2c-0.4,-0.4 -0.9,-0.6 -1.7,-0.6c-1,0 -1.8,0.3 -2.2,0.9c-0.5,0.6 -0.7,1.6 -0.7,3l0,5.6l-2.4,0l0,-15.8l2.4,0l0,4c0,0.6 0,1.3 -0.1,2.1l0.2,0c0.3,-0.5 0.8,-1 1.4,-1.3c0.6,-0.3 1.3,-0.5 2,-0.5c2.7,0 4.1,1.4 4.1,4.1l0,7.5l-0.1,0zm13.3,0l-2.4,0l0,-7c0,-0.9 -0.2,-1.5 -0.5,-2c-0.4,-0.4 -0.9,-0.6 -1.7,-0.6c-1,0 -1.8,0.3 -2.2,0.9c-0.5,0.6 -0.7,1.6 -0.7,3l0,5.6l-2.4,0l0,-11.3l1.9,0l0.3,1.5l0.1,0c0.3,-0.5 0.8,-1 1.5,-1.2c0.6,-0.3 1.3,-0.4 2.1,-0.4c2.7,0 4.1,1.4 4.1,4.1l0,7.4l-0.1,0zm13.4,-5.7c0,1.8 -0.5,3.3 -1.4,4.3c-0.9,1 -2.3,1.6 -4,1.6c-1.1,0 -2,-0.2 -2.8,-0.7c-0.8,-0.5 -1.4,-1.2 -1.9,-2.1c-0.4,-0.9 -0.7,-1.9 -0.7,-3.1c0,-1.8 0.5,-3.3 1.4,-4.3c0.9,-1 2.3,-1.5 4,-1.5c1.6,0 2.9,0.5 3.9,1.6c1,1 1.5,2.4 1.5,4.2zm-8.2,0c0,2.6 1,3.9 2.9,3.9c1.9,0 2.9,-1.3 2.9,-3.9c0,-2.6 -1,-3.9 -2.9,-3.9c-1,0 -1.7,0.3 -2.2,1c-0.5,0.7 -0.7,1.7 -0.7,2.9zm13.4,5.7l-2.4,0l0,-15.9l2.4,0l0,15.9zm13.4,-5.7c0,1.8 -0.5,3.3 -1.4,4.3c-0.9,1 -2.3,1.6 -4,1.6c-1.1,0 -2,-0.2 -2.8,-0.7c-0.8,-0.5 -1.4,-1.2 -1.9,-2.1c-0.4,-0.9 -0.7,-1.9 -0.7,-3.1c0,-1.8 0.5,-3.3 1.4,-4.3c0.9,-1 2.3,-1.5 4,-1.5c1.6,0 2.9,0.5 3.9,1.6c1.1,1 1.5,2.4 1.5,4.2zm-8.2,0c0,2.6 1,3.9 2.9,3.9c1.9,0 2.9,-1.3 2.9,-3.9c0,-2.6 -1,-3.9 -2.9,-3.9c-1,0 -1.7,0.3 -2.2,1c-0.5,0.7 -0.7,1.7 -0.7,2.9zm20.6,-5.6l0,1.3l-1.9,0.4c0.2,0.2 0.3,0.5 0.4,0.9c0.1,0.3 0.2,0.7 0.2,1.1c0,1.2 -0.4,2.1 -1.2,2.8c-0.8,0.7 -1.9,1 -3.3,1c-0.4,0 -0.7,0 -1,-0.1c-0.5,0.3 -0.8,0.7 -0.8,1.1c0,0.3 0.1,0.5 0.4,0.6c0.2,0.1 0.7,0.2 1.3,0.2l2,0c1.2,0 2.2,0.3 2.8,0.8s1,1.3 1,2.3c0,1.3 -0.5,2.3 -1.6,3c-1.1,0.7 -2.6,1 -4.6,1c-1.5,0 -2.7,-0.3 -3.5,-0.8c-0.8,-0.5 -1.2,-1.3 -1.2,-2.3c0,-0.7 0.2,-1.3 0.7,-1.8c0.4,-0.5 1.1,-0.8 1.8,-1c-0.3,-0.1 -0.6,-0.4 -0.8,-0.7c-0.2,-0.3 -0.3,-0.6 -0.3,-1c0,-0.4 0.1,-0.8 0.4,-1.1c0.2,-0.3 0.6,-0.6 1.1,-0.9c-0.6,-0.3 -1.1,-0.7 -1.4,-1.2c-0.4,-0.6 -0.5,-1.2 -0.5,-2c0,-1.2 0.4,-2.2 1.2,-2.9c0.8,-0.7 1.9,-1 3.3,-1c0.3,0 0.7,0 1,0.1c0.4,0 0.6,0.1 0.8,0.1l3.7,0l0,0.1zm-8.9,13c0,0.5 0.2,0.9 0.7,1.2c0.5,0.3 1.1,0.4 2,0.4c1.3,0 2.3,-0.2 2.9,-0.6c0.6,-0.4 1,-0.9 1,-1.5c0,-0.5 -0.2,-0.8 -0.5,-1c-0.4,-0.2 -1,-0.3 -2,-0.3l-1.8,0c-0.7,0 -1.2,0.2 -1.6,0.5c-0.5,0.4 -0.7,0.8 -0.7,1.3zm1,-9.4c0,0.7 0.2,1.3 0.5,1.6c0.4,0.4 0.9,0.6 1.6,0.6c1.4,0 2.1,-0.7 2.1,-2.2c0,-0.7 -0.2,-1.3 -0.5,-1.7c-0.3,-0.4 -0.9,-0.6 -1.6,-0.6c-0.7,0 -1.2,0.2 -1.6,0.6c-0.3,0.4 -0.5,1 -0.5,1.7zm8.2,-3.6l2.6,0l2.3,6.4c0.3,0.9 0.6,1.8 0.7,2.6l0.1,0c0.1,-0.4 0.2,-0.8 0.3,-1.4c0.2,-0.5 1,-3.1 2.6,-7.6l2.6,0l-4.8,12.8c-0.9,2.4 -2.3,3.5 -4.4,3.5c-0.5,0 -1.1,-0.1 -1.6,-0.2l0,-1.9c0.4,0.1 0.8,0.1 1.2,0.1c1.2,0 2,-0.7 2.4,-2l0.4,-1.1l-4.4,-11.2zm25.1,-1.8c-1.4,0 -2.5,0.5 -3.3,1.5c-0.8,1 -1.2,2.4 -1.2,4.1c0,1.8 0.4,3.2 1.2,4.2c0.8,0.9 1.9,1.4 3.4,1.4c0.6,0 1.2,-0.1 1.8,-0.2c0.6,-0.1 1.2,-0.3 1.9,-0.5l0,2.1c-1.2,0.4 -2.5,0.7 -4,0.7c-2.2,0 -3.9,-0.7 -5,-2c-1.2,-1.3 -1.8,-3.2 -1.8,-5.7c0,-1.6 0.3,-2.9 0.9,-4.1c0.6,-1.2 1.4,-2.1 2.5,-2.7c1.1,-0.6 2.3,-0.9 3.8,-0.9c1.5,0 2.9,0.3 4.2,1l-0.9,2c-0.5,-0.2 -1,-0.4 -1.6,-0.6c-0.7,-0.2 -1.3,-0.3 -1.9,-0.3zm16.6,7.4c0,1.8 -0.5,3.3 -1.4,4.3c-0.9,1 -2.3,1.6 -4,1.6c-1.1,0 -2,-0.2 -2.8,-0.7c-0.8,-0.5 -1.4,-1.2 -1.9,-2.1c-0.4,-0.9 -0.7,-1.9 -0.7,-3.1c0,-1.8 0.5,-3.3 1.4,-4.3c0.9,-1 2.3,-1.5 4,-1.5c1.6,0 2.9,0.5 3.9,1.6c1.1,1 1.5,2.4 1.5,4.2zm-8.2,0c0,2.6 1,3.9 2.9,3.9c1.9,0 2.9,-1.3 2.9,-3.9c0,-2.6 -1,-3.9 -2.9,-3.9c-1,0 -1.7,0.3 -2.2,1c-0.5,0.7 -0.7,1.7 -0.7,2.9zm20.5,5.7l-2.4,0l0,-7c0,-0.9 -0.2,-1.5 -0.5,-1.9c-0.3,-0.4 -0.8,-0.6 -1.5,-0.6c-0.9,0 -1.6,0.3 -2,0.9c-0.4,0.6 -0.6,1.6 -0.6,3l0,5.6l-2.4,0l0,-11.3l1.9,0l0.3,1.5l0.1,0c0.3,-0.5 0.8,-1 1.4,-1.2c0.6,-0.3 1.3,-0.4 2,-0.4c1.7,0 2.9,0.6 3.5,1.8l0.2,0c0.3,-0.6 0.8,-1 1.4,-1.3c0.6,-0.3 1.3,-0.5 2.1,-0.5c1.4,0 2.3,0.3 3,1c0.6,0.7 0.9,1.7 0.9,3.1l0,7.4l-2.4,0l0,-7c0,-0.9 -0.2,-1.5 -0.5,-1.9c-0.3,-0.4 -0.8,-0.6 -1.5,-0.6c-0.9,0 -1.6,0.3 -2.1,0.9c-0.4,0.6 -0.6,1.5 -0.6,2.7l0,5.8l-0.3,0zm16.3,0.2c-1.4,0 -2.5,-0.5 -3.3,-1.5l-0.1,0c0.1,1 0.1,1.5 0.1,1.7l0,4.6l-2.4,0l0,-16.3l1.9,0c0.1,0.2 0.2,0.7 0.3,1.5l0.1,0c0.7,-1.1 1.9,-1.7 3.4,-1.7c1.4,0 2.5,0.5 3.3,1.5c0.8,1 1.2,2.5 1.2,4.3c0,1.8 -0.4,3.3 -1.2,4.3c-0.8,1.1 -1.9,1.6 -3.3,1.6zm-0.6,-9.8c-1,0 -1.7,0.3 -2.1,0.8c-0.4,0.6 -0.7,1.5 -0.7,2.7l0,0.4c0,1.4 0.2,2.4 0.7,3c0.4,0.6 1.1,0.9 2.1,0.9c0.8,0 1.5,-0.3 1.9,-1c0.4,-0.7 0.7,-1.7 0.7,-2.9c0,-1.3 -0.2,-2.2 -0.7,-2.9c-0.4,-0.6 -1,-1 -1.9,-1zm15,9.6l-0.5,-1.6l-0.1,0c-0.5,0.7 -1.1,1.2 -1.6,1.4c-0.6,0.2 -1.3,0.4 -2.1,0.4c-1.1,0 -2,-0.3 -2.6,-0.9c-0.6,-0.6 -0.9,-1.4 -0.9,-2.5c0,-1.2 0.4,-2 1.3,-2.6c0.9,-0.6 2.2,-0.9 4,-1l2,-0.1l0,-0.6c0,-0.7 -0.2,-1.3 -0.5,-1.6c-0.3,-0.4 -0.9,-0.5 -1.6,-0.5c-0.6,0 -1.1,0.1 -1.7,0.3c-0.5,0.2 -1,0.4 -1.5,0.6l-0.8,-1.7c0.6,-0.3 1.3,-0.6 2,-0.7s1.4,-0.3 2.1,-0.3c1.4,0 2.5,0.3 3.3,0.9c0.7,0.6 1.1,1.6 1.1,3l0,7.6l-1.9,0l0,-0.1zm-3.6,-1.7c0.9,0 1.6,-0.2 2.1,-0.7c0.5,-0.5 0.8,-1.2 0.8,-2.1l0,-1l-1.5,0.1c-1.1,0 -2,0.2 -2.5,0.6c-0.5,0.3 -0.8,0.9 -0.8,1.5c0,0.5 0.1,0.9 0.4,1.2c0.4,0.3 0.9,0.4 1.5,0.4zm18.6,1.7l-2.4,0l0,-7c0,-0.9 -0.2,-1.5 -0.5,-2c-0.4,-0.4 -0.9,-0.6 -1.7,-0.6c-1,0 -1.8,0.3 -2.2,0.9c-0.5,0.6 -0.7,1.6 -0.7,3l0,5.6l-2.4,0l0,-11.3l1.9,0l0.3,1.5l0.1,0c0.3,-0.5 0.8,-1 1.5,-1.2c0.6,-0.3 1.3,-0.4 2.1,-0.4c2.7,0 4.1,1.4 4.1,4.1l0,7.4l-0.1,0zm1.6,-11.3l2.6,0l2.3,6.4c0.3,0.9 0.6,1.8 0.7,2.6l0.1,0c0.1,-0.4 0.2,-0.8 0.3,-1.4c0.2,-0.5 1,-3.1 2.6,-7.6l2.6,0l-4.8,12.8c-0.9,2.4 -2.3,3.5 -4.4,3.5c-0.5,0 -1.1,-0.1 -1.6,-0.2l0,-1.9c0.4,0.1 0.8,0.1 1.2,0.1c1.2,0 2,-0.7 2.4,-2l0.4,-1.1l-4.4,-11.2z"/>
 </g>
</svg>