<svg width="31" height="25" viewBox="0 0 31 25" fill="none" xmlns="http://www.w3.org/2000/svg">
<path d="M3.53812 3.77394C5.64262 1.49244 8.82712 0.335938 13.0016 0.335938H14.5016V4.56444L13.2956 4.80594C11.2406 5.21694 9.81112 6.02544 9.04612 7.21194C8.64696 7.85113 8.42057 8.583 8.38912 9.33594H13.0016C13.3994 9.33594 13.781 9.49397 14.0623 9.77528C14.3436 10.0566 14.5016 10.4381 14.5016 10.8359V21.3359C14.5016 22.9904 13.1561 24.3359 11.5016 24.3359H2.50162C2.10379 24.3359 1.72226 24.1779 1.44096 23.8966C1.15965 23.6153 1.00162 23.2338 1.00162 22.8359V15.3359L1.00612 10.9574C0.992619 10.7909 0.707619 6.84594 3.53812 3.77394ZM28.0016 24.3359H19.0016C18.6038 24.3359 18.2223 24.1779 17.941 23.8966C17.6597 23.6153 17.5016 23.2338 17.5016 22.8359V15.3359L17.5061 10.9574C17.4926 10.7909 17.2076 6.84594 20.0381 3.77394C22.1426 1.49244 25.3271 0.335938 29.5016 0.335938H31.0016V4.56444L29.7956 4.80594C27.7406 5.21694 26.3111 6.02544 25.5461 7.21194C25.147 7.85113 24.9206 8.583 24.8891 9.33594H29.5016C29.8994 9.33594 30.281 9.49397 30.5623 9.77528C30.8436 10.0566 31.0016 10.4381 31.0016 10.8359V21.3359C31.0016 22.9904 29.6561 24.3359 28.0016 24.3359Z" fill="white"/>
</svg>
